<svg width="100%" viewBox="0 0 894 440" fill="none" xmlns="http://www.w3.org/2000/svg">
<g id="Group 40">
<path id="mountain" fill-rule="evenodd" clip-rule="evenodd" d="M678.938 427H0C63.7715 340.243 191.855 281 339.469 281C487.082 281 615.166 340.243 678.938 427Z" fill="#0099FF"/>
<g id="sun" filter="url(#filter0_ddd_123_61)">
<circle cx="683" cy="211" r="50" fill="#FFA800"/>
</g>
<g id="mdi:user">
<path id="Vector" d="M351.5 391.167C353.136 391.167 354.704 391.816 355.86 392.973C357.017 394.129 357.667 395.698 357.667 397.333C357.667 398.969 357.017 400.537 355.86 401.694C354.704 402.85 353.136 403.5 351.5 403.5C349.864 403.5 348.296 402.85 347.14 401.694C345.983 400.537 345.333 398.969 345.333 397.333C345.333 395.698 345.983 394.129 347.14 392.973C348.296 391.816 349.864 391.167 351.5 391.167ZM351.5 406.583C358.314 406.583 363.833 409.343 363.833 412.75V415.833H339.167V412.75C339.167 409.343 344.686 406.583 351.5 406.583Z" fill="white"/>
</g>
<g id="mdi:user_2">
<path id="Vector_2" d="M126.5 365.167C128.136 365.167 129.704 365.816 130.86 366.973C132.017 368.129 132.667 369.698 132.667 371.333C132.667 372.969 132.017 374.537 130.86 375.694C129.704 376.85 128.136 377.5 126.5 377.5C124.865 377.5 123.296 376.85 122.14 375.694C120.983 374.537 120.333 372.969 120.333 371.333C120.333 369.698 120.983 368.129 122.14 366.973C123.296 365.816 124.865 365.167 126.5 365.167ZM126.5 380.583C133.314 380.583 138.833 383.343 138.833 386.75V389.833H114.167V386.75C114.167 383.343 119.686 380.583 126.5 380.583Z" fill="white"/>
</g>
<g id="mdi:user_3">
<path id="Vector_3" d="M314.5 328.167C316.136 328.167 317.704 328.816 318.86 329.973C320.017 331.129 320.667 332.698 320.667 334.333C320.667 335.969 320.017 337.537 318.86 338.694C317.704 339.85 316.136 340.5 314.5 340.5C312.864 340.5 311.296 339.85 310.14 338.694C308.983 337.537 308.333 335.969 308.333 334.333C308.333 332.698 308.983 331.129 310.14 329.973C311.296 328.816 312.864 328.167 314.5 328.167ZM314.5 343.583C321.314 343.583 326.833 346.343 326.833 349.75V352.833H302.167V349.75C302.167 346.343 307.686 343.583 314.5 343.583Z" fill="white"/>
</g>
<g id="mdi:user_4">
<path id="Vector_4" d="M588.5 409.167C590.136 409.167 591.704 409.816 592.86 410.973C594.017 412.129 594.667 413.698 594.667 415.333C594.667 416.969 594.017 418.537 592.86 419.694C591.704 420.85 590.136 421.5 588.5 421.5C586.865 421.5 585.296 420.85 584.14 419.694C582.983 418.537 582.333 416.969 582.333 415.333C582.333 413.698 582.983 412.129 584.14 410.973C585.296 409.816 586.865 409.167 588.5 409.167ZM588.5 424.583C595.314 424.583 600.833 427.343 600.833 430.75V433.833H576.167V430.75C576.167 427.343 581.686 424.583 588.5 424.583Z" fill="white"/>
</g>
<g id="mdi:user_5">
<path id="Vector_5" d="M455.5 365.167C457.135 365.167 458.704 365.816 459.86 366.973C461.017 368.129 461.667 369.698 461.667 371.333C461.667 372.969 461.017 374.537 459.86 375.694C458.704 376.85 457.135 377.5 455.5 377.5C453.864 377.5 452.296 376.85 451.14 375.694C449.983 374.537 449.333 372.969 449.333 371.333C449.333 369.698 449.983 368.129 451.14 366.973C452.296 365.816 453.864 365.167 455.5 365.167ZM455.5 380.583C462.314 380.583 467.833 383.343 467.833 386.75V389.833H443.167V386.75C443.167 383.343 448.686 380.583 455.5 380.583Z" fill="white"/>
</g>
<g id="mdi:user_6">
<path id="Vector_6" d="M457.497 269.872C459.096 270.211 460.496 271.172 461.387 272.544C462.278 273.915 462.588 275.584 462.249 277.184C461.909 278.784 460.948 280.183 459.577 281.075C458.205 281.966 456.536 282.276 454.936 281.936C453.336 281.597 451.937 280.636 451.046 279.264C450.154 277.893 449.845 276.224 450.184 274.624C450.524 273.024 451.485 271.624 452.856 270.733C454.227 269.842 455.897 269.532 457.497 269.872ZM454.296 284.952C460.962 286.367 465.788 290.212 465.081 293.545L464.441 296.561L440.311 291.441L440.951 288.424C441.659 285.092 447.63 283.538 454.296 284.952Z" fill="white"/>
</g>
</g>
<defs>
<filter id="filter0_ddd_123_61" x="472" y="0" width="422" height="422" filterUnits="userSpaceOnUse" color-interpolation-filters="sRGB">
<feFlood flood-opacity="0" result="BackgroundImageFix"/>
<feColorMatrix in="SourceAlpha" type="matrix" values="0 0 0 0 0 0 0 0 0 0 0 0 0 0 0 0 0 0 127 0" result="hardAlpha"/>
<feMorphology radius="44" operator="dilate" in="SourceAlpha" result="effect1_dropShadow_123_61"/>
<feOffset/>
<feGaussianBlur stdDeviation="44.5"/>
<feComposite in2="hardAlpha" operator="out"/>
<feColorMatrix type="matrix" values="0 0 0 0 1 0 0 0 0 0.780392 0 0 0 0 0 0 0 0 0.26 0"/>
<feBlend mode="normal" in2="BackgroundImageFix" result="effect1_dropShadow_123_61"/>
<feColorMatrix in="SourceAlpha" type="matrix" values="0 0 0 0 0 0 0 0 0 0 0 0 0 0 0 0 0 0 127 0" result="hardAlpha"/>
<feMorphology radius="4" operator="dilate" in="SourceAlpha" result="effect2_dropShadow_123_61"/>
<feOffset/>
<feGaussianBlur stdDeviation="78.5"/>
<feComposite in2="hardAlpha" operator="out"/>
<feColorMatrix type="matrix" values="0 0 0 0 1 0 0 0 0 0.780392 0 0 0 0 0 0 0 0 0.46 0"/>
<feBlend mode="normal" in2="effect1_dropShadow_123_61" result="effect2_dropShadow_123_61"/>
<feColorMatrix in="SourceAlpha" type="matrix" values="0 0 0 0 0 0 0 0 0 0 0 0 0 0 0 0 0 0 127 0" result="hardAlpha"/>
<feOffset/>
<feGaussianBlur stdDeviation="14.5"/>
<feComposite in2="hardAlpha" operator="out"/>
<feColorMatrix type="matrix" values="0 0 0 0 1 0 0 0 0 0.66 0 0 0 0 0 0 0 0 1 0"/>
<feBlend mode="normal" in2="effect2_dropShadow_123_61" result="effect3_dropShadow_123_61"/>
<feBlend mode="normal" in="SourceGraphic" in2="effect3_dropShadow_123_61" result="shape"/>
</filter>
</defs>
</svg>
