<svg width="100%" viewBox="0 0 900 600" fill="none" xmlns="http://www.w3.org/2000/svg">
<g id="Home SVG 1" clip-path="url(#clip0_80_2)">
<path id="circle-2" d="M699.901 351.539C703.442 416.795 575.861 549.486 418.608 500.373C345.471 477.529 351.666 439.613 296.053 389.642C262.905 359.859 215.277 337.338 202.03 294.046C190.586 256.679 197.604 216.515 217.443 190.39C262.062 131.638 352.139 91.407 440.893 183.976C529.647 276.545 690.748 183.238 699.901 351.539V351.539Z" fill="#FFF8F8"/>
<path id="circle-1" d="M664.927 207.694C652.518 229.841 625.34 232.884 581.799 228.676C549.053 225.505 519.191 223.051 486.442 205.196C463.521 192.707 445.376 175.811 432.133 159.401C417.783 141.623 397.753 121.333 407.572 101.176C421.066 73.486 499.102 50.166 574.877 88.303C658.116 130.209 677.067 186.048 664.927 207.694V207.694Z" fill="white"/>
<path id="circle-3" d="M349.07 478.557C320.16 438.112 290.552 395.126 251.79 373.954C211.807 352.104 204.434 365.57 201.666 386.979C198.898 408.388 211.234 459.113 265.799 487.973C320.378 516.843 376.121 516.41 349.07 478.557V478.557Z" fill="white"/>
<path id="item-1" d="M598.121 80H302C290.954 80 282 88.9543 282 100V188.901C282 199.947 290.954 208.901 302 208.901H598.121C609.167 208.901 618.121 199.947 618.121 188.901V100C618.121 88.9543 609.167 80 598.121 80Z" fill="white" stroke="#E1E4E5" stroke-width="4"/>
<path id="Vector" d="M575.977 119.585H386.202C382.022 119.585 378.634 122.973 378.634 127.153C378.634 131.333 382.022 134.721 386.202 134.721H575.977C580.157 134.721 583.545 131.333 583.545 127.153C583.545 122.973 580.157 119.585 575.977 119.585Z" fill="#E1E4E5"/>
<path id="Vector_2" d="M503.792 153.35H386.202C382.022 153.35 378.634 156.738 378.634 160.918C378.634 165.098 382.022 168.486 386.202 168.486H503.792C507.972 168.486 511.36 165.098 511.36 160.918C511.36 156.738 507.972 153.35 503.792 153.35Z" fill="#E1E4E5"/>
<path id="Vector_3" fill-rule="evenodd" clip-rule="evenodd" d="M335.269 176.943C317.453 176.943 303.008 162.295 303.008 144.227C303.008 126.16 317.453 111.511 335.269 111.511C353.086 111.511 367.531 126.16 367.531 144.227C367.531 162.295 353.086 176.943 335.269 176.943Z" fill="#666AF6"/>
<path id="Vector_4" d="M346.629 138.775L333 153.316L324.818 144.593" stroke="white" stroke-width="3.568" stroke-linecap="round" stroke-linejoin="round"/>
<path id="item-2" d="M598.121 235.296H302C290.954 235.296 282 244.25 282 255.296V344.197C282 355.243 290.954 364.197 302 364.197H598.121C609.167 364.197 618.121 355.243 618.121 344.197V255.296C618.121 244.25 609.167 235.296 598.121 235.296Z" fill="white" stroke="#E1E4E5" stroke-width="4"/>
<path id="Vector_5" d="M575.977 274.881H386.202C382.022 274.881 378.634 278.269 378.634 282.449C378.634 286.629 382.022 290.017 386.202 290.017H575.977C580.157 290.017 583.545 286.629 583.545 282.449C583.545 278.269 580.157 274.881 575.977 274.881Z" fill="#E1E4E5"/>
<path id="Vector_6" d="M503.792 308.646H386.202C382.022 308.646 378.634 312.034 378.634 316.214C378.634 320.394 382.022 323.782 386.202 323.782H503.792C507.972 323.782 511.36 320.394 511.36 316.214C511.36 312.034 507.972 308.646 503.792 308.646Z" fill="#E1E4E5"/>
<path id="Vector_7" fill-rule="evenodd" clip-rule="evenodd" d="M335.269 332.24C317.453 332.24 303.008 317.591 303.008 299.524C303.008 281.456 317.453 266.808 335.269 266.808C353.086 266.808 367.531 281.456 367.531 299.524C367.531 317.591 353.086 332.24 335.269 332.24Z" fill="#666AF6"/>
<path id="Vector_8" d="M346.629 294.072L333 308.612L324.818 299.889" stroke="white" stroke-width="3.568" stroke-linecap="round" stroke-linejoin="round"/>
<path id="item-3" d="M598.121 390.593H302C290.954 390.593 282 399.547 282 410.593V499.494C282 510.54 290.954 519.494 302 519.494H598.121C609.167 519.494 618.121 510.54 618.121 499.494V410.593C618.121 399.547 609.167 390.593 598.121 390.593Z" fill="white" stroke="#E1E4E5" stroke-width="4"/>
<path id="Vector_9" d="M575.977 430.178H386.202C382.022 430.178 378.634 433.566 378.634 437.746C378.634 441.926 382.022 445.314 386.202 445.314H575.977C580.157 445.314 583.545 441.926 583.545 437.746C583.545 433.566 580.157 430.178 575.977 430.178Z" fill="#E1E4E5"/>
<path id="Vector_10" d="M503.792 463.942H386.202C382.022 463.942 378.634 467.33 378.634 471.51C378.634 475.69 382.022 479.078 386.202 479.078H503.792C507.972 479.078 511.36 475.69 511.36 471.51C511.36 467.33 507.972 463.942 503.792 463.942Z" fill="#E1E4E5"/>
<path id="Vector_11" fill-rule="evenodd" clip-rule="evenodd" d="M335.269 487.536C317.453 487.536 303.008 472.887 303.008 454.82C303.008 436.753 317.453 422.104 335.269 422.104C353.086 422.104 367.531 436.753 367.531 454.82C367.531 472.887 353.086 487.536 335.269 487.536Z" fill="#666AF6"/>
<path id="Vector_12" d="M346.629 449.368L333 463.909L324.818 455.186" stroke="white" stroke-width="3.568" stroke-linecap="round" stroke-linejoin="round"/>
<path id="Vector_13" d="M643.774 177.221C643.278 179.074 644.377 180.978 646.23 181.475C648.083 181.971 649.987 180.872 650.484 179.019C650.98 177.166 649.881 175.262 648.028 174.765C646.175 174.269 644.271 175.368 643.774 177.221Z" fill="#E1E4E5"/>
<path id="Vector_14" d="M663.846 244.032C666.783 244.032 669.164 241.651 669.164 238.714C669.164 235.777 666.783 233.396 663.846 233.396C660.909 233.396 658.528 235.777 658.528 238.714C658.528 241.651 660.909 244.032 663.846 244.032Z" fill="#666AF6"/>
<path id="Vector_15" d="M242.402 413.192C237.996 413.192 234.424 416.764 234.424 421.17C234.424 425.576 237.996 429.148 242.402 429.148C246.808 429.148 250.38 425.576 250.38 421.17C250.38 416.764 246.808 413.192 242.402 413.192Z" fill="#666AF6"/>
<path id="Vector_16" d="M223.967 251.645C220.877 251.645 218.372 249.14 218.372 246.05C218.372 242.96 220.877 240.455 223.967 240.455C227.057 240.455 229.562 242.96 229.562 246.05C229.562 249.14 227.057 251.645 223.967 251.645Z" fill="#666AF6"/>
<path id="Vector_17" d="M179.645 351.499C174.064 351.499 169.54 346.975 169.54 341.394C169.54 335.813 174.064 331.289 179.645 331.289C185.226 331.289 189.75 335.813 189.75 341.394C189.75 346.975 185.226 351.499 179.645 351.499Z" fill="#E1E4E5"/>
<path id="Vector_18" d="M674.253 422.766C668.672 422.766 664.148 418.242 664.148 412.661C664.148 407.08 668.672 402.556 674.253 402.556C679.834 402.556 684.358 407.08 684.358 412.661C684.358 418.242 679.834 422.766 674.253 422.766Z" fill="#E1E4E5"/>
<path id="Vector_19" d="M246.326 302.219C247.036 304.871 245.463 307.597 242.811 308.307C240.159 309.018 237.433 307.444 236.723 304.792C236.012 302.14 237.586 299.415 240.238 298.704C242.889 297.993 245.615 299.567 246.326 302.219Z" fill="#E1E4E5"/>
<path id="Vector_20" d="M646.319 310.562C647.029 313.214 645.456 315.94 642.804 316.65C640.152 317.361 637.426 315.787 636.715 313.135C636.005 310.483 637.579 307.758 640.231 307.047C642.882 306.336 645.608 307.91 646.319 310.562Z" fill="#E1E4E5"/>
<path id="Vector_21" d="M247.365 197.728C243.713 197.728 240.752 194.767 240.752 191.115C240.752 187.463 243.713 184.502 247.365 184.502C251.017 184.502 253.978 187.463 253.978 191.115C253.978 194.767 251.017 197.728 247.365 197.728Z" fill="#E1E4E5"/>
</g>
<defs>
<clipPath id="clip0_80_2">
<rect width="900" height="600" fill="white"/>
</clipPath>
</defs>
</svg>
