<svg width="820" height="628" viewBox="0 0 820 628" fill="none" xmlns="http://www.w3.org/2000/svg">
<g id="No_goal 1" clip-path="url(#clip0_105_2)" filter="url(#filter0_d_105_2)">
<path id="Vector" d="M78.9128 619.032L78.8749 619.278C78.8299 619.038 78.7867 618.793 78.7456 618.552C78.6705 618.162 78.6053 617.772 78.5439 617.379C76.1064 602.034 77.4477 586.325 82.4518 571.615C83.4137 568.744 84.5092 565.925 85.7384 563.159C90.4391 552.448 97.1031 542.711 105.386 534.451C108.076 531.698 111.144 529.344 114.499 527.458C114.991 527.197 115.487 526.95 115.993 526.722C119.096 525.217 122.589 524.711 125.991 525.273C127.227 525.506 128.425 525.908 129.55 526.468C129.945 526.66 130.325 526.871 130.698 527.096C132.972 528.587 134.914 530.532 136.402 532.808C137.89 535.085 138.891 537.644 139.345 540.325C139.991 544.325 139.843 548.414 138.91 552.356C138.829 552.733 138.743 553.108 138.651 553.482C137.989 556.11 137.158 558.692 136.162 561.213C126.193 586.862 104.77 609.619 78.9128 619.032Z" fill="#F2F2F2"/>
<path id="Vector_2" d="M129.484 526.551C121.706 537.728 114.358 549.19 107.44 560.934C100.531 572.669 94.0742 584.655 88.0688 596.892C84.7094 603.738 81.4968 610.653 78.4311 617.638C78.0917 618.411 79.2367 619.084 79.5805 618.301C85.0555 605.832 90.997 593.582 97.405 581.552C103.809 569.534 110.663 557.771 117.967 546.262C122.053 539.823 126.275 533.474 130.633 527.213C131.121 526.513 129.97 525.853 129.484 526.551Z" fill="white"/>
<path id="Vector_3" d="M137.807 552.424C131.962 560.02 123.358 565.007 113.861 566.302C111.211 566.664 108.529 566.717 105.867 566.461C105.015 566.38 105.009 567.707 105.854 567.787C115.76 568.62 125.594 565.513 133.222 559.139C135.362 557.35 137.286 555.319 138.957 553.086C139.468 552.406 138.315 551.748 137.807 552.424V552.424Z" fill="white"/>
<path id="Vector_4" d="M87.8834 593.632C86.5244 591.696 85.3953 589.608 84.5188 587.411C82.5164 582.403 81.8056 576.971 82.4518 571.615C83.4137 568.744 84.5092 565.925 85.7384 563.159C85.8128 563.268 85.8576 563.395 85.8684 563.526C85.8791 563.657 85.8554 563.789 85.7997 563.909C84.9341 565.984 84.3119 568.152 83.9454 570.37C82.6297 578.28 84.4562 586.391 89.0352 592.974C89.0931 593.046 89.1317 593.131 89.1471 593.222C89.1625 593.313 89.1543 593.407 89.1233 593.494C89.0721 593.609 88.9915 593.709 88.8897 593.783C88.7879 593.858 88.6684 593.904 88.543 593.918C88.4176 593.932 88.2907 593.913 88.175 593.863C88.0593 593.813 87.9588 593.733 87.8834 593.632V593.632Z" fill="white"/>
<path id="Vector_5" d="M114.697 526.618C113.097 532.993 113.574 539.712 116.057 545.798C116.145 545.95 116.289 546.061 116.459 546.107C116.628 546.153 116.809 546.131 116.962 546.045C117.112 545.954 117.221 545.81 117.267 545.642C117.313 545.473 117.292 545.293 117.209 545.14C114.884 539.366 114.452 533.002 115.977 526.967C116.016 526.8 115.989 526.624 115.902 526.476C115.814 526.328 115.672 526.22 115.506 526.174C115.34 526.129 115.163 526.15 115.012 526.233C114.861 526.316 114.748 526.454 114.697 526.618H114.697Z" fill="white"/>
<path id="Vector_6" d="M78.7497 586.997L78.8302 587.233C78.6794 587.042 78.5272 586.845 78.3787 586.65C78.1311 586.34 77.892 586.024 77.6551 585.705C68.3683 573.248 62.2594 558.714 59.8578 543.363C59.3758 540.374 59.0366 537.369 58.8402 534.348C58.0272 522.679 59.4055 510.961 62.9037 499.798C64.0068 496.111 65.6304 492.601 67.7255 489.373C68.0405 488.913 68.3641 488.464 68.7065 488.027C70.7548 485.253 73.613 483.182 76.8873 482.1C78.0897 481.731 79.3373 481.531 80.5947 481.504C81.0334 481.491 81.4679 481.501 81.9026 481.527C84.6092 481.791 87.2322 482.612 89.6071 483.936C91.9821 485.261 94.058 487.062 95.7048 489.226C98.1352 492.468 99.9033 496.157 100.908 500.082C101.012 500.453 101.11 500.826 101.202 501.199C101.837 503.834 102.3 506.507 102.589 509.201C105.676 536.546 97.2756 566.65 78.7497 586.997Z" fill="#F2F2F2"/>
<path id="Vector_7" d="M80.5741 481.608C78.8781 495.12 77.695 508.683 77.0249 522.297C76.3578 535.898 76.2072 549.512 76.5733 563.138C76.7785 570.761 77.146 578.377 77.6758 585.987C77.7343 586.829 79.0606 586.893 79.0014 586.04C78.0578 572.455 77.6292 558.847 77.7156 545.217C77.8043 531.599 78.4094 517.998 79.531 504.414C80.1589 496.814 80.9484 489.229 81.8997 481.661C82.0059 480.814 80.6799 480.765 80.5741 481.608V481.608Z" fill="white"/>
<path id="Vector_8" d="M99.9634 500.654C98.3159 510.096 93.0129 518.509 85.2042 524.068C83.0257 525.619 80.6749 526.912 78.1988 527.921C77.4072 528.246 78.0185 529.424 78.8033 529.102C87.9624 525.239 95.228 517.918 99.0225 508.73C100.087 506.153 100.847 503.46 101.289 500.707C101.426 499.867 100.099 499.819 99.9634 500.654V500.654Z" fill="white"/>
<path id="Vector_9" d="M74.8948 560.337C72.7921 559.254 70.8224 557.93 69.0257 556.391C64.9258 552.886 61.7732 548.406 59.8577 543.363C59.3757 540.374 59.0365 537.369 58.8401 534.348C58.9566 534.41 59.055 534.501 59.1255 534.612C59.1961 534.724 59.2364 534.851 59.2424 534.983C59.4399 537.223 59.8961 539.432 60.6019 541.567C63.1112 549.183 68.4964 555.517 75.6091 559.219C75.6938 559.256 75.7677 559.314 75.8236 559.387C75.8795 559.461 75.9157 559.547 75.9286 559.639C75.9368 559.764 75.9119 559.89 75.8563 560.004C75.8007 560.117 75.7165 560.214 75.6119 560.284C75.5074 560.355 75.3862 560.397 75.2604 560.406C75.1346 560.415 75.0085 560.391 74.8948 560.337V560.337Z" fill="white"/>
<path id="Vector_10" d="M67.5108 488.537C69.0553 494.925 72.5985 500.654 77.6245 504.89C77.773 504.983 77.9524 505.015 78.1239 504.977C78.2954 504.939 78.4451 504.835 78.5405 504.688C78.631 504.539 78.6606 504.36 78.623 504.19C78.5855 504.019 78.4837 503.869 78.3388 503.772C73.5974 499.739 70.2594 494.304 68.8062 488.251C68.7635 488.085 68.6577 487.941 68.5112 487.851C68.3646 487.761 68.1887 487.731 68.0207 487.768C67.8526 487.805 67.7055 487.906 67.6103 488.049C67.5152 488.193 67.4795 488.367 67.5107 488.537L67.5108 488.537Z" fill="white"/>
<path id="Vector_11" d="M79.3238 619.195L79.5183 619.35C79.2884 619.27 79.0542 619.186 78.8243 619.102C78.4484 618.974 78.0771 618.837 77.7055 618.696C63.1717 613.201 50.1971 604.245 39.9061 592.604C37.8898 590.345 35.9856 587.996 34.1935 585.556C27.2238 576.162 22.074 565.546 19.0099 554.257C17.9538 550.556 17.4312 546.724 17.458 542.876C17.4757 542.318 17.5066 541.766 17.5597 541.213C17.7914 537.772 19.0844 534.488 21.2606 531.813C22.0753 530.855 23.0186 530.014 24.0637 529.315C24.4262 529.067 24.7977 528.842 25.178 528.629C27.6008 527.394 30.2526 526.673 32.9672 526.51C35.6818 526.347 38.4008 526.747 40.954 527.683C44.7478 529.106 48.2244 531.262 51.1852 534.028C51.4726 534.285 51.7556 534.545 52.0344 534.811C53.988 536.689 55.8179 538.692 57.5125 540.806C74.8404 562.184 83.9753 592.074 79.3238 619.195Z" fill="#F2F2F2"/>
<path id="Vector_12" d="M24.1022 529.413C29.9502 541.711 36.2578 553.777 43.0252 565.608C49.7883 577.428 56.9932 588.98 64.64 600.263C68.9185 606.576 73.3301 612.796 77.8748 618.922C78.3777 619.6 79.5295 618.94 79.0202 618.253C70.9086 607.314 63.2189 596.079 55.951 584.548C48.6918 573.027 41.8767 561.241 35.5056 549.191C31.9415 542.449 28.5222 535.633 25.2475 528.744C24.8811 527.973 23.7371 528.645 24.1022 529.413Z" fill="white"/>
<path id="Vector_13" d="M50.6967 535.018C54.3939 543.862 54.4564 553.806 50.8707 562.695C49.8703 565.175 48.586 567.531 47.0434 569.715C46.5511 570.415 47.7007 571.078 48.1887 570.385C53.8253 562.196 56.0046 552.115 54.2535 542.33C53.762 539.585 52.9527 536.907 51.8421 534.349C51.5048 533.567 50.3617 534.242 50.6967 535.018Z" fill="white"/>
<path id="Vector_14" d="M61.7174 598.807C59.3623 599.027 56.9897 598.972 54.6473 598.644C49.3049 597.898 44.2357 595.821 39.906 592.604C37.8898 590.345 35.9856 587.995 34.1935 585.556C34.3249 585.546 34.4568 585.569 34.5762 585.625C34.6956 585.681 34.7984 585.767 34.8744 585.875C36.247 587.655 37.8212 589.271 39.5656 590.69C45.7815 595.755 53.7304 598.192 61.7174 597.481C61.8085 597.466 61.9019 597.475 61.9886 597.507C62.0752 597.539 62.1523 597.592 62.2124 597.662C62.2871 597.764 62.3339 597.883 62.3481 598.009C62.3623 598.134 62.3434 598.261 62.2934 598.377C62.2433 598.493 62.1638 598.593 62.0628 598.669C61.9617 598.744 61.8427 598.792 61.7174 598.807V598.807Z" fill="white"/>
<path id="Vector_15" d="M16.8268 542.287C21.5689 546.838 27.6396 549.757 34.1555 550.619C34.5136 550.666 34.8154 550.28 34.8188 549.955C34.8146 549.781 34.7434 549.614 34.6199 549.491C34.4964 549.367 34.3301 549.296 34.1555 549.292C27.9884 548.447 22.2489 545.666 17.7647 541.349C17.1499 540.756 16.2107 541.693 16.8267 542.287H16.8268Z" fill="white"/>
<path id="Vector_16" d="M169.861 444.249C171.157 443.361 172.242 442.2 173.04 440.847C173.838 439.494 174.329 437.983 174.48 436.42C174.631 434.857 174.437 433.279 173.913 431.799C173.388 430.319 172.545 428.972 171.443 427.852L175.61 334.834L154.395 337.216L155.627 428.2C153.87 430.176 152.898 432.727 152.896 435.372C152.894 438.016 153.862 440.569 155.616 442.547C157.371 444.525 159.79 445.791 162.415 446.105C165.041 446.418 167.69 445.758 169.861 444.249V444.249Z" fill="#FFB8B8"/>
<path id="Vector_17" d="M208.564 601.708L220.639 603.83L232.573 558.267L216.752 555.134L208.564 601.708Z" fill="#FFB8B8"/>
<path id="Vector_18" d="M241.954 619.136L204.005 612.465L206.583 597.803L229.87 601.897C231.795 602.235 233.635 602.95 235.284 603.999C236.934 605.049 238.36 606.413 239.482 608.014C240.605 609.614 241.4 611.421 241.824 613.329C242.249 615.238 242.293 617.211 241.954 619.136V619.136V619.136Z" fill="#2F2E41"/>
<path id="Vector_19" d="M175.422 607.752L187.682 607.751L193.514 560.463L175.42 560.464L175.422 607.752Z" fill="#FFB8B8"/>
<path id="Vector_20" d="M211.326 619.135L172.795 619.136L172.794 604.249L196.438 604.248C200.387 604.248 204.173 605.816 206.965 608.608C209.757 611.4 211.326 615.186 211.326 619.135V619.135L211.326 619.135Z" fill="#2F2E41"/>
<path id="Vector_21" d="M227.574 594.802C227.383 594.803 227.192 594.791 227.002 594.769L212.572 593.581C211.915 593.504 211.28 593.294 210.707 592.964C210.134 592.634 209.634 592.191 209.237 591.661C208.84 591.132 208.555 590.528 208.399 589.885C208.243 589.242 208.219 588.574 208.329 587.922L221.654 513.241L212.651 465.767C212.577 465.381 212.367 465.035 212.058 464.792C211.75 464.549 211.364 464.426 210.971 464.446C210.579 464.465 210.207 464.626 209.924 464.898C209.641 465.17 209.466 465.536 209.432 465.927L198.176 592.554C198.052 593.825 197.44 594.998 196.468 595.826C195.496 596.654 194.24 597.072 192.966 596.991L179.371 596.485C178.18 596.401 177.061 595.883 176.225 595.03C175.389 594.177 174.895 593.047 174.835 591.854L173.921 440.086L244.402 431.277L249.326 507.317L249.306 507.398L232.316 591.073C232.057 592.135 231.449 593.081 230.589 593.757C229.73 594.433 228.668 594.801 227.574 594.802V594.802Z" fill="#2F2E41"/>
<path id="Vector_22" d="M197.159 274.558C210.723 274.558 221.72 263.561 221.72 249.997C221.72 236.432 210.723 225.436 197.159 225.436C183.594 225.436 172.598 236.432 172.598 249.997C172.598 263.561 183.594 274.558 197.159 274.558Z" fill="#FFB8B8"/>
<path id="Vector_23" d="M220.301 451.179C216.46 451.202 212.692 450.124 209.444 448.073C197.547 440.637 184.034 443.593 177.037 446.016C176.343 446.259 175.603 446.342 174.872 446.259C174.141 446.176 173.439 445.928 172.817 445.535C172.202 445.149 171.683 444.63 171.298 444.014C170.912 443.399 170.671 442.705 170.592 441.984L157.87 328.358C155.738 309.321 167.206 291.422 185.138 285.799C185.811 285.587 186.496 285.387 187.193 285.197C192.773 283.684 198.617 283.413 204.314 284.401C210.01 285.39 215.421 287.615 220.165 290.92C224.997 294.261 229.038 298.621 232.004 303.692C234.97 308.763 236.789 314.423 237.332 320.273L248.042 434.66C248.115 435.401 248.015 436.148 247.75 436.843C247.485 437.539 247.062 438.163 246.515 438.667C242.76 442.14 231.863 451.178 220.301 451.179Z" fill="#6C63FF"/>
<path id="Vector_24" d="M181.56 352.724L152.857 349.568C152.04 349.479 151.252 349.214 150.547 348.792C149.842 348.37 149.236 347.802 148.77 347.125C148.305 346.448 147.991 345.678 147.849 344.869C147.708 344.06 147.743 343.229 147.951 342.435L155.257 314.588C155.74 310.412 157.86 306.599 161.151 303.983C164.441 301.367 168.635 300.163 172.812 300.635C176.989 301.107 180.809 303.215 183.434 306.499C186.058 309.783 187.274 313.973 186.814 318.151L187.898 346.827C187.929 347.648 187.783 348.466 187.469 349.225C187.155 349.984 186.681 350.667 186.08 351.227C185.478 351.786 184.763 352.21 183.983 352.468C183.203 352.727 182.377 352.814 181.56 352.724V352.724Z" fill="#6C63FF"/>
<path id="Vector_25" d="M247.927 440.266C249.106 439.228 250.043 437.945 250.672 436.506C251.302 435.067 251.608 433.507 251.569 431.937C251.53 430.367 251.148 428.825 250.449 427.419C249.749 426.012 248.75 424.777 247.522 423.798L240.449 330.956L219.66 335.636L231.863 426.05C230.356 428.223 229.699 430.873 230.016 433.498C230.332 436.123 231.601 438.541 233.581 440.293C235.561 442.045 238.115 443.01 240.759 443.005C243.403 443 245.954 442.026 247.927 440.266V440.266Z" fill="#FFB8B8"/>
<path id="Vector_26" d="M211.69 346.888C211.088 346.329 210.614 345.646 210.301 344.887C209.987 344.127 209.84 343.309 209.872 342.488L210.956 313.813C210.496 309.634 211.712 305.444 214.336 302.16C216.961 298.877 220.781 296.768 224.958 296.296C229.135 295.825 233.329 297.029 236.619 299.644C239.91 302.26 242.029 306.074 242.513 310.25L249.819 338.096C250.027 338.891 250.062 339.721 249.92 340.53C249.779 341.34 249.465 342.109 248.999 342.786C248.534 343.463 247.928 344.032 247.223 344.453C246.518 344.875 245.73 345.14 244.913 345.23L216.21 348.386C215.393 348.476 214.566 348.389 213.786 348.13C213.006 347.872 212.291 347.448 211.69 346.888V346.888Z" fill="#6C63FF"/>
<path id="Vector_27" d="M195.698 275.483C195.261 275.483 194.826 275.432 194.401 275.332L194.276 275.302C172.682 271.998 167.91 259.49 166.862 254.266C165.778 248.858 167.013 243.638 169.802 241.611C168.281 236.808 168.525 232.55 170.53 228.948C174.025 222.668 181.611 220.545 182.628 220.285C188.686 215.816 195.934 218.799 197.253 219.404C208.972 215.069 213.451 218.677 214.261 219.483C219.499 220.424 222.692 222.448 223.752 225.499C225.743 231.23 219.447 238.359 219.178 238.659L219.038 238.815L209.658 239.262C208.768 239.304 207.897 239.534 207.101 239.934C206.305 240.335 205.602 240.899 205.038 241.589C204.474 242.279 204.062 243.079 203.827 243.939C203.592 244.799 203.541 245.698 203.677 246.579V246.579C203.93 247.715 204.251 248.836 204.637 249.934C206.239 254.941 207.439 259.218 205.891 260.844C205.54 261.158 205.108 261.368 204.644 261.448C204.18 261.529 203.702 261.477 203.266 261.299C201.799 260.907 200.804 260.989 200.307 261.543C199.537 262.403 199.772 264.578 200.97 267.669C201.345 268.646 201.446 269.707 201.262 270.738C201.078 271.769 200.615 272.729 199.924 273.516C199.403 274.13 198.756 274.623 198.027 274.963C197.297 275.303 196.503 275.48 195.698 275.483Z" fill="#2F2E41"/>
<path id="Vector_28" d="M485.76 354H364.76C360.253 353.995 355.932 352.202 352.745 349.015C349.558 345.828 347.765 341.507 347.76 337V155.168C347.765 150.661 349.558 146.34 352.745 143.153C355.932 139.966 360.253 138.174 364.76 138.168H485.76C490.267 138.174 494.588 139.966 497.775 143.153C500.962 146.34 502.755 150.661 502.76 155.168V337C502.755 341.507 500.962 345.828 497.775 349.015C494.588 352.202 490.267 353.995 485.76 354V354ZM364.76 140.168C360.783 140.173 356.97 141.755 354.158 144.567C351.346 147.379 349.764 151.192 349.76 155.168V337C349.764 340.977 351.346 344.79 354.158 347.602C356.97 350.414 360.783 351.996 364.76 352H485.76C489.737 351.996 493.549 350.414 496.361 347.602C499.174 344.79 500.755 340.977 500.76 337V155.168C500.755 151.192 499.174 147.379 496.361 144.567C493.549 141.755 489.737 140.173 485.76 140.168H364.76Z" fill="#3F3D56"/>
<path id="r11" d="M467.26 225.584H383.26C381.006 225.582 378.846 224.686 377.252 223.092C375.659 221.499 374.762 219.338 374.76 217.084V177.084C374.762 174.831 375.659 172.67 377.252 171.077C378.846 169.483 381.006 168.587 383.26 168.584H467.26C469.513 168.587 471.674 169.483 473.267 171.077C474.861 172.67 475.757 174.831 475.76 177.084V217.084C475.757 219.338 474.861 221.499 473.267 223.092C471.674 224.686 469.513 225.582 467.26 225.584Z" fill="#6C63FF"/>
<path id="r12" d="M461.26 263.084H389.26C387.138 263.084 385.103 262.242 383.603 260.741C382.103 259.241 381.26 257.206 381.26 255.084C381.26 252.963 382.103 250.928 383.603 249.428C385.103 247.927 387.138 247.084 389.26 247.084H461.26C463.382 247.084 465.416 247.927 466.917 249.428C468.417 250.928 469.26 252.963 469.26 255.084C469.26 257.206 468.417 259.241 466.917 260.741C465.416 262.242 463.382 263.084 461.26 263.084Z" fill="#CCCCCC"/>
<path id="r13" d="M461.26 293.084H389.26C387.138 293.084 385.103 292.242 383.603 290.741C382.103 289.241 381.26 287.206 381.26 285.084C381.26 282.963 382.103 280.928 383.603 279.428C385.103 277.927 387.138 277.084 389.26 277.084H461.26C463.382 277.084 465.416 277.927 466.917 279.428C468.417 280.928 469.26 282.963 469.26 285.084C469.26 287.206 468.417 289.241 466.917 290.741C465.416 292.242 463.382 293.084 461.26 293.084Z" fill="#CCCCCC"/>
<path id="r14" d="M461.26 323.084H389.26C387.138 323.084 385.103 322.242 383.603 320.741C382.103 319.241 381.26 317.206 381.26 315.084C381.26 312.963 382.103 310.928 383.603 309.428C385.103 307.927 387.138 307.084 389.26 307.084H461.26C463.382 307.084 465.416 307.927 466.917 309.428C468.417 310.928 469.26 312.963 469.26 315.084C469.26 317.206 468.417 319.241 466.917 320.741C465.416 322.242 463.382 323.084 461.26 323.084Z" fill="#CCCCCC"/>
<path id="Vector_29" d="M780.76 456H659.76C655.253 455.995 650.932 454.202 647.745 451.015C644.558 447.828 642.765 443.507 642.76 439V257.168C642.765 252.661 644.558 248.34 647.745 245.153C650.932 241.966 655.253 240.174 659.76 240.168H780.76C785.267 240.174 789.588 241.966 792.775 245.153C795.962 248.34 797.755 252.661 797.76 257.168V439C797.755 443.507 795.962 447.828 792.775 451.015C789.588 454.202 785.267 455.995 780.76 456ZM659.76 242.168C655.783 242.173 651.97 243.755 649.158 246.567C646.346 249.379 644.764 253.192 644.76 257.168V439C644.764 442.977 646.346 446.79 649.158 449.602C651.97 452.414 655.783 453.996 659.76 454H780.76C784.737 453.996 788.549 452.414 791.362 449.602C794.174 446.79 795.755 442.977 795.76 439V257.168C795.755 253.192 794.174 249.379 791.362 246.567C788.549 243.755 784.737 242.173 780.76 242.168H659.76Z" fill="#3F3D56"/>
<path id="r31" d="M756.26 285.084H684.26C682.138 285.084 680.103 284.242 678.603 282.741C677.103 281.241 676.26 279.206 676.26 277.084C676.26 274.963 677.103 272.928 678.603 271.428C680.103 269.927 682.138 269.084 684.26 269.084H756.26C758.382 269.084 760.417 269.927 761.917 271.428C763.417 272.928 764.26 274.963 764.26 277.084C764.26 279.206 763.417 281.241 761.917 282.741C760.417 284.242 758.382 285.084 756.26 285.084Z" fill="#CCCCCC"/>
<path id="r32" d="M756.26 315.084H684.26C682.138 315.084 680.103 314.242 678.603 312.741C677.103 311.241 676.26 309.206 676.26 307.084C676.26 304.963 677.103 302.928 678.603 301.428C680.103 299.927 682.138 299.084 684.26 299.084H756.26C758.382 299.084 760.417 299.927 761.917 301.428C763.417 302.928 764.26 304.963 764.26 307.084C764.26 309.206 763.417 311.241 761.917 312.741C760.417 314.242 758.382 315.084 756.26 315.084Z" fill="#CCCCCC"/>
<path id="r33" d="M762.26 391.584H678.26C676.006 391.581 673.846 390.685 672.252 389.091C670.659 387.498 669.763 385.337 669.76 383.084V343.084C669.763 340.83 670.659 338.67 672.252 337.077C673.846 335.483 676.006 334.587 678.26 334.584H762.26C764.513 334.587 766.674 335.483 768.267 337.077C769.861 338.67 770.757 340.83 770.76 343.084V383.084C770.757 385.337 769.861 387.498 768.267 389.091C766.674 390.685 764.513 391.581 762.26 391.584V391.584Z" fill="#E6E6E6"/>
<path id="r34" d="M756.26 427.084H684.26C682.138 427.084 680.103 426.242 678.603 424.741C677.103 423.241 676.26 421.206 676.26 419.084C676.26 416.963 677.103 414.928 678.603 413.428C680.103 411.927 682.138 411.084 684.26 411.084H756.26C758.382 411.084 760.417 411.927 761.917 413.428C763.417 414.928 764.26 416.963 764.26 419.084C764.26 421.206 763.417 423.241 761.917 424.741C760.417 426.242 758.382 427.084 756.26 427.084Z" fill="#CCCCCC"/>
<path id="Vector_30" d="M706.76 167H585.76C581.253 166.995 576.932 165.202 573.745 162.015C570.558 158.828 568.765 154.507 568.76 150V37.1685C568.765 32.6613 570.558 28.3403 573.745 25.1532C576.932 21.9662 581.253 20.1735 585.76 20.1685H706.76C711.267 20.1735 715.588 21.9662 718.775 25.1532C721.962 28.3403 723.755 32.6613 723.76 37.1685V150C723.755 154.507 721.962 158.828 718.775 162.015C715.588 165.202 711.267 166.995 706.76 167V167ZM585.76 22.1685C581.783 22.173 577.97 23.7548 575.158 26.5668C572.346 29.3789 570.764 33.1916 570.76 37.1685V150C570.764 153.977 572.346 157.79 575.158 160.602C577.97 163.414 581.783 164.996 585.76 165H706.76C710.737 164.996 714.549 163.414 717.362 160.602C720.174 157.79 721.755 153.977 721.76 150V37.1685C721.755 33.1916 720.174 29.3789 717.362 26.5668C714.549 23.7548 710.737 22.173 706.76 22.1685H585.76Z" fill="#3F3D56"/>
<path id="r23" d="M682.26 131.584H610.26C608.138 131.584 606.103 130.741 604.603 129.241C603.103 127.741 602.26 125.706 602.26 123.584C602.26 121.463 603.103 119.428 604.603 117.927C606.103 116.427 608.138 115.584 610.26 115.584H682.26C684.382 115.584 686.417 116.427 687.917 117.927C689.417 119.428 690.26 121.463 690.26 123.584C690.26 125.706 689.417 127.741 687.917 129.241C686.417 130.741 684.382 131.584 682.26 131.584Z" fill="#CCCCCC"/>
<path id="r22" d="M682.26 101.584H610.26C608.138 101.584 606.103 100.741 604.603 99.2411C603.103 97.7408 602.26 95.706 602.26 93.5842C602.26 91.4625 603.103 89.4277 604.603 87.9274C606.103 86.4271 608.138 85.5842 610.26 85.5842H682.26C684.382 85.5842 686.417 86.4271 687.917 87.9274C689.417 89.4277 690.26 91.4625 690.26 93.5842C690.26 95.706 689.417 97.7408 687.917 99.2411C686.417 100.741 684.382 101.584 682.26 101.584Z" fill="#CCCCCC"/>
<path id="r21" d="M682.26 71.5842H610.26C608.138 71.5842 606.103 70.7414 604.603 69.2411C603.103 67.7408 602.26 65.706 602.26 63.5842C602.26 61.4625 603.103 59.4277 604.603 57.9274C606.103 56.4271 608.138 55.5842 610.26 55.5842H682.26C684.382 55.5842 686.417 56.4271 687.917 57.9274C689.417 59.4277 690.26 61.4625 690.26 63.5842C690.26 65.706 689.417 67.7408 687.917 69.2411C686.417 70.7414 684.382 71.5842 682.26 71.5842Z" fill="#CCCCCC"/>
<g id="checked1">
<path id="Vector_31" d="M492.76 166C505.462 166 515.76 155.703 515.76 143C515.76 130.297 505.462 120 492.76 120C480.057 120 469.76 130.297 469.76 143C469.76 155.703 480.057 166 492.76 166Z" fill="#6C63FF"/>
<path id="Vector_32" d="M490.48 151.774C489.963 151.775 489.459 151.608 489.045 151.297L489.019 151.278L483.614 147.14C483.362 146.948 483.151 146.709 482.992 146.436C482.833 146.163 482.73 145.861 482.688 145.548C482.646 145.234 482.666 144.916 482.747 144.61C482.828 144.305 482.969 144.019 483.161 143.768C483.354 143.517 483.594 143.306 483.867 143.148C484.141 142.99 484.443 142.888 484.757 142.847C485.07 142.806 485.389 142.828 485.694 142.91C485.999 142.992 486.285 143.134 486.535 143.327L490.036 146.012L498.31 135.222C498.501 134.972 498.741 134.762 499.014 134.604C499.287 134.446 499.588 134.344 499.901 134.302C500.214 134.261 500.531 134.282 500.836 134.363C501.141 134.445 501.426 134.586 501.676 134.777L501.625 134.847L501.678 134.779C502.183 135.166 502.513 135.739 502.596 136.37C502.679 137.001 502.509 137.64 502.122 138.145L492.391 150.837C492.165 151.129 491.876 151.366 491.545 151.529C491.213 151.691 490.849 151.775 490.48 151.774V151.774Z" fill="white"/>
</g>
<g id="checked3">
<path id="Vector_33" d="M792.76 269C805.462 269 815.76 258.703 815.76 246C815.76 233.297 805.462 223 792.76 223C780.057 223 769.76 233.297 769.76 246C769.76 258.703 780.057 269 792.76 269Z" fill="#3F3D56"/>
<path id="Vector_34" d="M790.48 254.774C789.963 254.775 789.459 254.608 789.045 254.297L789.019 254.278L783.614 250.14C783.362 249.948 783.151 249.709 782.992 249.436C782.833 249.163 782.73 248.861 782.688 248.548C782.646 248.234 782.666 247.916 782.747 247.61C782.828 247.305 782.969 247.019 783.162 246.768C783.354 246.517 783.594 246.306 783.867 246.148C784.141 245.99 784.443 245.888 784.757 245.847C785.07 245.806 785.389 245.828 785.694 245.91C785.999 245.992 786.285 246.134 786.535 246.327L790.036 249.012L798.31 238.222C798.501 237.972 798.741 237.762 799.014 237.604C799.287 237.446 799.588 237.344 799.901 237.302C800.214 237.261 800.531 237.282 800.836 237.363C801.141 237.445 801.426 237.586 801.676 237.777L801.625 237.847L801.678 237.779C802.183 238.166 802.513 238.739 802.596 239.37C802.679 240.001 802.509 240.64 802.122 241.145L792.391 253.837C792.166 254.129 791.876 254.366 791.545 254.529C791.213 254.691 790.849 254.775 790.48 254.774Z" fill="white"/>
</g>
<g id="checked2">
<path id="Vector_35" d="M719.76 46C732.462 46 742.76 35.7025 742.76 23C742.76 10.2975 732.462 0 719.76 0C707.057 0 696.76 10.2975 696.76 23C696.76 35.7025 707.057 46 719.76 46Z" fill="#3F3D56"/>
<path id="Vector_36" d="M717.48 31.7741C716.963 31.775 716.459 31.6077 716.045 31.2973L716.019 31.278L710.614 27.1397C710.362 26.9483 710.151 26.7092 709.992 26.436C709.833 26.1628 709.73 25.8609 709.688 25.5477C709.646 25.2344 709.666 24.9159 709.747 24.6105C709.828 24.3051 709.969 24.0187 710.162 23.7678C710.354 23.5169 710.594 23.3064 710.867 23.1484C711.141 22.9904 711.443 22.888 711.757 22.8471C712.07 22.8062 712.389 22.8275 712.694 22.9099C712.999 22.9923 713.285 23.1342 713.535 23.3273L717.036 26.0118L725.31 15.2219C725.501 14.9717 725.741 14.7617 726.014 14.6039C726.287 14.4461 726.588 14.3437 726.901 14.3024C727.214 14.2611 727.531 14.2818 727.836 14.3634C728.141 14.4449 728.426 14.5856 728.676 14.7775L728.625 14.8473L728.678 14.7785C729.183 15.1665 729.513 15.7389 729.596 16.37C729.679 17.0012 729.509 17.6397 729.122 18.1454L719.391 30.8369C719.166 31.1293 718.876 31.366 718.545 31.5285C718.213 31.6911 717.849 31.7751 717.48 31.7741Z" fill="white"/>
</g>
<path id="Vector_37" d="M386 620H5C4.73478 620 4.48043 619.895 4.29289 619.707C4.10536 619.52 4 619.265 4 619C4 618.735 4.10536 618.48 4.29289 618.293C4.48043 618.105 4.73478 618 5 618H386C386.265 618 386.52 618.105 386.707 618.293C386.895 618.48 387 618.735 387 619C387 619.265 386.895 619.52 386.707 619.707C386.52 619.895 386.265 620 386 620Z" fill="#3F3D56"/>
</g>
<defs>
<filter id="filter0_d_105_2" x="0" y="0" width="819.76" height="628" filterUnits="userSpaceOnUse" color-interpolation-filters="sRGB">
<feFlood flood-opacity="0" result="BackgroundImageFix"/>
<feColorMatrix in="SourceAlpha" type="matrix" values="0 0 0 0 0 0 0 0 0 0 0 0 0 0 0 0 0 0 127 0" result="hardAlpha"/>
<feOffset dy="4"/>
<feGaussianBlur stdDeviation="2"/>
<feComposite in2="hardAlpha" operator="out"/>
<feColorMatrix type="matrix" values="0 0 0 0 0 0 0 0 0 0 0 0 0 0 0 0 0 0 0.25 0"/>
<feBlend mode="normal" in2="BackgroundImageFix" result="effect1_dropShadow_105_2"/>
<feBlend mode="normal" in="SourceGraphic" in2="effect1_dropShadow_105_2" result="shape"/>
</filter>
<clipPath id="clip0_105_2">
<rect width="811.76" height="620" fill="white" transform="translate(4)"/>
</clipPath>
</defs>
</svg>
